name rise44.9368peak50.754fall52.0217.mot
datacolumns 19
datarows 23
range 13.54162000000000 13.57828300000000
endheader
time	ground_force1_vx	ground_force1_vy	ground_force1_vz	ground_force1_px	ground_force1_py	ground_force1_pz	ground_force2_vx	ground_force2_vy	ground_force2_vz	ground_force2_px	ground_force2_py	ground_force2_pz	ground_torque1_x	ground_torque1_y	ground_torque1_z	ground_torque2_x	ground_torque2_y	ground_torque2_z	
13.54162000000000	-5.51548900000000	41.18045600000000	-4.73624100000000	0.35187100000000	0.00000000000000	0.12716700000000	-45.82217200000000	816.19998099999998	-72.83203399999999	0.17729600000000	0.00000000000000	-0.09225400000000	0.00000000000000	-3.24964400000000	0.00000000000000	0.00000000000000	-31.97518000000000	0.00000000000000	
13.54328600000000	-6.07142600000000	48.40604300000000	-5.21505800000000	0.35970400000000	0.00000000000000	0.12796800000000	-46.35398300000000	813.41192100000001	-72.47694199999999	0.17647700000000	0.00000000000000	-0.09218400000000	0.00000000000000	-3.62006400000000	0.00000000000000	0.00000000000000	-31.79647900000000	0.00000000000000	
13.54495100000000	-6.52692900000000	55.76032300000000	-5.60830700000000	0.36651800000000	0.00000000000000	0.12869700000000	-46.88129800000000	810.44508800000006	-72.08990000000000	0.17566600000000	0.00000000000000	-0.09210900000000	0.00000000000000	-3.93528200000000	0.00000000000000	0.00000000000000	-31.61014000000000	0.00000000000000	
13.54662300000000	-6.86610800000000	63.15192300000000	-5.90245800000000	0.37248000000000	0.00000000000000	0.12936700000000	-47.40417000000000	807.29817700000001	-71.67091000000001	0.17486300000000	0.00000000000000	-0.09203000000000	0.00000000000000	-4.18477400000000	0.00000000000000	0.00000000000000	-31.41632100000000	0.00000000000000	
13.54828900000000	-7.07893600000000	70.51097500000000	-6.08900000000000	0.37772400000000	0.00000000000000	0.12998700000000	-47.92262100000000	803.97001899999998	-71.22001700000000	0.17406700000000	0.00000000000000	-0.09194800000000	0.00000000000000	-4.36175800000000	0.00000000000000	0.00000000000000	-31.21518500000000	0.00000000000000	
13.54995500000000	-7.16121000000000	77.79139400000000	-6.16441100000000	0.38235500000000	0.00000000000000	0.13056300000000	-48.43664600000000	800.45958399999995	-70.73730700000000	0.17327700000000	0.00000000000000	-0.09186100000000	0.00000000000000	-4.46322500000000	0.00000000000000	0.00000000000000	-31.00689700000000	0.00000000000000	
13.55161700000000	-7.11404900000000	84.97080699999999	-6.12972000000000	0.38646100000000	0.00000000000000	0.13110200000000	-48.94619900000000	796.76598400000000	-70.22290599999999	0.17249300000000	0.00000000000000	-0.09177100000000	0.00000000000000	-4.48964400000000	0.00000000000000	0.00000000000000	-30.79162900000000	0.00000000000000	
13.55328600000000	-6.94304900000000	92.04854899999999	-5.98977700000000	0.39011600000000	0.00000000000000	0.13160800000000	-49.45120300000000	792.88847899999996	-69.67698600000000	0.17171500000000	0.00000000000000	-0.09167700000000	0.00000000000000	-4.44443000000000	0.00000000000000	0.00000000000000	-30.56955300000000	0.00000000000000	
13.55495100000000	-6.65721900000000	99.04219999999999	-5.75233400000000	0.39337900000000	0.00000000000000	0.13208400000000	-49.95153800000000	788.82647499999996	-69.09976100000000	0.17094100000000	0.00000000000000	-0.09157900000000	0.00000000000000	-4.33326800000000	0.00000000000000	0.00000000000000	-30.34084300000000	0.00000000000000	
13.55662100000000	-6.26782100000000	105.98323000000001	-5.42705200000000	0.39630100000000	0.00000000000000	0.13253500000000	-50.44704300000000	784.57953199999997	-68.49148800000000	0.17017100000000	0.00000000000000	-0.09147700000000	0.00000000000000	-4.16335800000000	0.00000000000000	0.00000000000000	-30.10567800000000	0.00000000000000	
13.55828700000000	-5.78723600000000	112.91224900000000	-5.02452500000000	0.39892500000000	0.00000000000000	0.13296200000000	-50.93751200000000	780.14736500000004	-67.85246800000000	0.16940500000000	0.00000000000000	-0.09137100000000	0.00000000000000	-3.94267000000000	0.00000000000000	0.00000000000000	-29.86423500000000	0.00000000000000	
13.55995000000000	-5.22794100000000	119.87433100000000	-4.55540100000000	0.40128800000000	0.00000000000000	0.13336800000000	-51.42269400000000	775.52984600000002	-67.18304600000000	0.16864300000000	0.00000000000000	-0.09126200000000	0.00000000000000	-3.67927300000000	0.00000000000000	0.00000000000000	-29.61669500000000	0.00000000000000	
13.56161900000000	-4.60165000000000	126.91476200000000	-4.02964500000000	0.40342300000000	0.00000000000000	0.13375500000000	-51.90229100000000	770.72700799999996	-66.48361400000000	0.16788500000000	0.00000000000000	-0.09114800000000	0.00000000000000	-3.38076000000000	0.00000000000000	0.00000000000000	-29.36323900000000	0.00000000000000	
13.56328400000000	-3.91867300000000	134.07547700000001	-3.45599200000000	0.40535500000000	0.00000000000000	0.13412300000000	-52.37595400000000	765.73904600000003	-65.75460600000000	0.16712900000000	0.00000000000000	-0.09103100000000	0.00000000000000	-3.05382300000000	0.00000000000000	0.00000000000000	-29.10404600000000	0.00000000000000	
13.56495400000000	-3.18749600000000	141.39234500000001	-2.84158200000000	0.40710800000000	0.00000000000000	0.13447600000000	-52.84328400000000	760.56632200000001	-64.99650300000000	0.16637700000000	0.00000000000000	-0.09091000000000	0.00000000000000	-2.70396600000000	0.00000000000000	0.00000000000000	-28.83929700000000	0.00000000000000	
13.56661900000000	-2.41457200000000	148.89335199999999	-2.19179300000000	0.40870400000000	0.00000000000000	0.13481300000000	-53.30383100000000	755.20936200000006	-64.20983099999999	0.16562800000000	0.00000000000000	-0.09078500000000	0.00000000000000	-2.33536100000000	0.00000000000000	0.00000000000000	-28.56917200000000	0.00000000000000	
13.56828400000000	-1.60431600000000	156.59765999999999	-1.51022900000000	0.41016000000000	0.00000000000000	0.13513600000000	-53.75709300000000	749.66886699999998	-63.39516000000000	0.16488200000000	0.00000000000000	-0.09065600000000	0.00000000000000	-1.95083800000000	0.00000000000000	0.00000000000000	-28.29384800000000	0.00000000000000	
13.56995700000000	-0.75924500000000	164.51545600000000	-0.79884700000000	0.41149200000000	0.00000000000000	0.13544600000000	-54.20251400000000	743.94570499999998	-62.55310700000000	0.16413900000000	0.00000000000000	-0.09052300000000	0.00000000000000	-1.55196500000000	0.00000000000000	0.00000000000000	-28.01350100000000	0.00000000000000	
13.57162300000000	0.11974600000000	172.64846499999999	-0.05819400000000	0.41271400000000	0.00000000000000	0.13574300000000	-54.63948800000000	738.04092300000002	-61.68433100000000	0.16339900000000	0.00000000000000	-0.09038600000000	0.00000000000000	-1.13922500000000	0.00000000000000	0.00000000000000	-27.72830600000000	0.00000000000000	
13.57329000000000	1.03304800000000	180.99094199999999	0.71230100000000	0.41383800000000	0.00000000000000	0.13602800000000	-55.06735400000000	731.95574299999998	-60.78953900000000	0.16266400000000	0.00000000000000	-0.09024500000000	0.00000000000000	-0.71223300000000	0.00000000000000	0.00000000000000	-27.43843200000000	0.00000000000000	
13.57495700000000	1.98195000000000	189.53101699999999	1.51399400000000	0.41487400000000	0.00000000000000	0.13630200000000	-55.48540100000000	725.69157099999995	-59.86948000000000	0.16193200000000	0.00000000000000	-0.09010000000000	0.00000000000000	-0.26997800000000	0.00000000000000	0.00000000000000	-27.14404700000000	0.00000000000000	
13.57662300000000	2.96825700000000	198.25219400000000	2.34869800000000	0.41583400000000	0.00000000000000	0.13656500000000	-55.89286600000000	719.24999300000002	-58.92494500000000	0.16120500000000	0.00000000000000	-0.08995100000000	0.00000000000000	0.18892700000000	0.00000000000000	0.00000000000000	-26.84531400000000	0.00000000000000	
13.57828300000000	3.99393400000000	207.13488000000001	3.21837200000000	0.41672400000000	0.00000000000000	0.13681800000000	-56.28893900000000	712.63278600000001	-57.95676900000000	0.16048200000000	0.00000000000000	-0.08979700000000	0.00000000000000	0.66601400000000	0.00000000000000	0.00000000000000	-26.54239200000000	0.00000000000000	
